<svg xmlns="http://www.w3.org/2000/svg" xmlns:xlink="http://www.w3.org/1999/xlink" width="127" zoomAndPan="magnify" viewBox="0 0 95.25 32.999998" height="44" preserveAspectRatio="xMidYMid meet" version="1.0"><defs><g/><clipPath id="a65f55c7f6"><path d="M 3.273438 6.09375 L 24.855469 6.09375 L 24.855469 16 L 3.273438 16 Z M 3.273438 6.09375 " clip-rule="nonzero"/></clipPath><clipPath id="6f05208e59"><path d="M 5 10 L 23 10 L 23 25.441406 L 5 25.441406 Z M 5 10 " clip-rule="nonzero"/></clipPath><clipPath id="5da051fa6c"><path d="M 4 11 L 15 11 L 15 25.746094 L 4 25.746094 Z M 4 11 " clip-rule="nonzero"/></clipPath><clipPath id="511dd4694d"><path d="M 9 8 L 24.109375 8 L 24.109375 25 L 9 25 Z M 9 8 " clip-rule="nonzero"/></clipPath><clipPath id="4a73958938"><path d="M 6 7.144531 L 12 7.144531 L 12 13 L 6 13 Z M 6 7.144531 " clip-rule="nonzero"/></clipPath><clipPath id="d9352ac8e3"><path d="M 3.273438 9 L 8 9 L 8 14 L 3.273438 14 Z M 3.273438 9 " clip-rule="nonzero"/></clipPath></defs><g clip-path="url(#a65f55c7f6)"><path fill="#ffffff" d="M 23.707031 12.902344 L 20.421875 10.488281 L 20.421875 7.605469 C 20.421875 7.15625 20.054688 6.789062 19.605469 6.789062 L 18.277344 6.789062 C 17.824219 6.789062 17.460938 7.15625 17.460938 7.605469 L 17.460938 8.304688 L 14.957031 6.464844 C 14.414062 6.066406 13.523438 6.066406 12.980469 6.464844 L 4.230469 12.902344 C 3.6875 13.300781 3.570312 14.074219 3.96875 14.617188 L 4.210938 14.945312 C 4.613281 15.488281 5.382812 15.605469 5.925781 15.207031 L 12.980469 10.015625 C 13.523438 9.617188 14.414062 9.617188 14.957031 10.015625 L 22.011719 15.207031 C 22.554688 15.605469 23.324219 15.488281 23.722656 14.945312 L 23.964844 14.617188 C 24.363281 14.074219 24.25 13.300781 23.707031 12.902344 Z M 23.707031 12.902344 " fill-opacity="1" fill-rule="nonzero"/></g><g clip-path="url(#6f05208e59)"><path fill="#ffffff" d="M 21.089844 15.660156 L 14.953125 11.125 C 14.410156 10.722656 13.523438 10.722656 12.984375 11.125 L 6.847656 15.660156 C 6.304688 16.058594 5.863281 16.644531 5.863281 16.964844 L 5.863281 23.539062 C 5.863281 24.605469 6.777344 25.46875 7.90625 25.46875 L 11.652344 25.46875 L 11.652344 19.65625 C 11.652344 19.207031 12.019531 18.839844 12.46875 18.839844 L 15.464844 18.839844 C 15.914062 18.839844 16.285156 19.207031 16.285156 19.65625 L 16.285156 25.46875 L 20.03125 25.46875 C 21.160156 25.46875 22.074219 24.605469 22.074219 23.539062 L 22.074219 16.964844 C 22.074219 16.644531 21.628906 16.058594 21.089844 15.660156 Z M 21.089844 15.660156 " fill-opacity="1" fill-rule="nonzero"/></g><g fill="#38b6ff" fill-opacity="1"><g transform="translate(30.078149, 14.912482)"><g><path d="M 4.90625 -1.625 L 5.65625 -5.640625 L 6.8125 -5.640625 L 5.5625 0 L 4.390625 0 L 3.46875 -3.78125 L 2.5625 0 L 1.390625 0 L 0.140625 -5.640625 L 1.296875 -5.640625 L 2.0625 -1.640625 L 2.984375 -5.640625 L 3.96875 -5.640625 Z M 4.90625 -1.625 "/></g></g></g><g fill="#38b6ff" fill-opacity="1"><g transform="translate(37.012885, 14.912482)"><g><path d="M 2.359375 0.078125 C 1.742188 0.078125 1.242188 -0.109375 0.859375 -0.484375 C 0.472656 -0.859375 0.28125 -1.363281 0.28125 -2 L 0.28125 -2.109375 C 0.28125 -2.523438 0.359375 -2.898438 0.515625 -3.234375 C 0.679688 -3.566406 0.910156 -3.820312 1.203125 -4 C 1.503906 -4.175781 1.847656 -4.265625 2.234375 -4.265625 C 2.804688 -4.265625 3.253906 -4.082031 3.578125 -3.71875 C 3.910156 -3.363281 4.078125 -2.851562 4.078125 -2.1875 L 4.078125 -1.734375 L 1.421875 -1.734375 C 1.453125 -1.460938 1.554688 -1.242188 1.734375 -1.078125 C 1.921875 -0.910156 2.15625 -0.828125 2.4375 -0.828125 C 2.863281 -0.828125 3.203125 -0.984375 3.453125 -1.296875 L 4 -0.671875 C 3.832031 -0.441406 3.601562 -0.257812 3.3125 -0.125 C 3.03125 0.0078125 2.710938 0.078125 2.359375 0.078125 Z M 2.234375 -3.359375 C 2.015625 -3.359375 1.832031 -3.285156 1.6875 -3.140625 C 1.550781 -2.992188 1.460938 -2.78125 1.421875 -2.5 L 2.984375 -2.5 L 2.984375 -2.578125 C 2.984375 -2.828125 2.914062 -3.019531 2.78125 -3.15625 C 2.65625 -3.289062 2.472656 -3.359375 2.234375 -3.359375 Z M 2.234375 -3.359375 "/></g></g></g><g fill="#38b6ff" fill-opacity="1"><g transform="translate(41.299181, 14.912482)"><g/></g></g><g fill="#38b6ff" fill-opacity="1"><g transform="translate(43.273895, 14.912482)"><g><path d="M 4.9375 -1.875 C 4.894531 -1.269531 4.671875 -0.789062 4.265625 -0.4375 C 3.859375 -0.09375 3.320312 0.078125 2.65625 0.078125 C 1.9375 0.078125 1.367188 -0.164062 0.953125 -0.65625 C 0.535156 -1.144531 0.328125 -1.8125 0.328125 -2.65625 L 0.328125 -3 C 0.328125 -3.539062 0.421875 -4.019531 0.609375 -4.4375 C 0.804688 -4.851562 1.082031 -5.171875 1.4375 -5.390625 C 1.789062 -5.609375 2.203125 -5.71875 2.671875 -5.71875 C 3.328125 -5.71875 3.851562 -5.539062 4.25 -5.1875 C 4.644531 -4.84375 4.875 -4.359375 4.9375 -3.734375 L 3.78125 -3.734375 C 3.75 -4.097656 3.644531 -4.359375 3.46875 -4.515625 C 3.300781 -4.679688 3.035156 -4.765625 2.671875 -4.765625 C 2.285156 -4.765625 1.992188 -4.625 1.796875 -4.34375 C 1.609375 -4.070312 1.515625 -3.644531 1.515625 -3.0625 L 1.515625 -2.625 C 1.515625 -2.019531 1.601562 -1.578125 1.78125 -1.296875 C 1.96875 -1.015625 2.257812 -0.875 2.65625 -0.875 C 3.019531 -0.875 3.289062 -0.953125 3.46875 -1.109375 C 3.644531 -1.273438 3.742188 -1.53125 3.765625 -1.875 Z M 4.9375 -1.875 "/></g></g></g><g fill="#38b6ff" fill-opacity="1"><g transform="translate(48.46236, 14.912482)"><g><path d="M 2.859375 0 C 2.804688 -0.101562 2.769531 -0.226562 2.75 -0.375 C 2.476562 -0.0703125 2.125 0.078125 1.6875 0.078125 C 1.28125 0.078125 0.941406 -0.0390625 0.671875 -0.28125 C 0.398438 -0.519531 0.265625 -0.816406 0.265625 -1.171875 C 0.265625 -1.617188 0.425781 -1.960938 0.75 -2.203125 C 1.082031 -2.441406 1.5625 -2.5625 2.1875 -2.5625 L 2.703125 -2.5625 L 2.703125 -2.796875 C 2.703125 -2.992188 2.648438 -3.148438 2.546875 -3.265625 C 2.453125 -3.378906 2.296875 -3.4375 2.078125 -3.4375 C 1.890625 -3.4375 1.742188 -3.390625 1.640625 -3.296875 C 1.535156 -3.210938 1.484375 -3.09375 1.484375 -2.9375 L 0.359375 -2.9375 C 0.359375 -3.175781 0.429688 -3.398438 0.578125 -3.609375 C 0.734375 -3.816406 0.945312 -3.976562 1.21875 -4.09375 C 1.488281 -4.207031 1.796875 -4.265625 2.140625 -4.265625 C 2.660156 -4.265625 3.070312 -4.132812 3.375 -3.875 C 3.675781 -3.613281 3.828125 -3.25 3.828125 -2.78125 L 3.828125 -0.96875 C 3.828125 -0.570312 3.878906 -0.269531 3.984375 -0.0625 L 3.984375 0 Z M 1.9375 -0.78125 C 2.101562 -0.78125 2.253906 -0.816406 2.390625 -0.890625 C 2.523438 -0.960938 2.628906 -1.0625 2.703125 -1.1875 L 2.703125 -1.90625 L 2.28125 -1.90625 C 1.71875 -1.90625 1.421875 -1.710938 1.390625 -1.328125 L 1.390625 -1.265625 C 1.390625 -1.117188 1.4375 -1 1.53125 -0.90625 C 1.625 -0.820312 1.757812 -0.78125 1.9375 -0.78125 Z M 1.9375 -0.78125 "/></g></g></g><g fill="#38b6ff" fill-opacity="1"><g transform="translate(52.713804, 14.912482)"><g><path d="M 1.46875 -4.1875 L 1.5 -3.703125 C 1.800781 -4.078125 2.203125 -4.265625 2.703125 -4.265625 C 3.148438 -4.265625 3.476562 -4.132812 3.6875 -3.875 C 3.90625 -3.613281 4.019531 -3.222656 4.03125 -2.703125 L 4.03125 0 L 2.90625 0 L 2.90625 -2.6875 C 2.90625 -2.914062 2.851562 -3.082031 2.75 -3.1875 C 2.644531 -3.300781 2.472656 -3.359375 2.234375 -3.359375 C 1.921875 -3.359375 1.6875 -3.222656 1.53125 -2.953125 L 1.53125 0 L 0.40625 0 L 0.40625 -4.1875 Z M 1.46875 -4.1875 "/></g></g></g><g fill="#38b6ff" fill-opacity="1"><g transform="translate(57.154979, 14.912482)"><g/></g></g><g fill="#38b6ff" fill-opacity="1"><g transform="translate(59.129694, 14.912482)"><g><path d="M 4.9375 -1.875 C 4.894531 -1.269531 4.671875 -0.789062 4.265625 -0.4375 C 3.859375 -0.09375 3.320312 0.078125 2.65625 0.078125 C 1.9375 0.078125 1.367188 -0.164062 0.953125 -0.65625 C 0.535156 -1.144531 0.328125 -1.8125 0.328125 -2.65625 L 0.328125 -3 C 0.328125 -3.539062 0.421875 -4.019531 0.609375 -4.4375 C 0.804688 -4.851562 1.082031 -5.171875 1.4375 -5.390625 C 1.789062 -5.609375 2.203125 -5.71875 2.671875 -5.71875 C 3.328125 -5.71875 3.851562 -5.539062 4.25 -5.1875 C 4.644531 -4.84375 4.875 -4.359375 4.9375 -3.734375 L 3.78125 -3.734375 C 3.75 -4.097656 3.644531 -4.359375 3.46875 -4.515625 C 3.300781 -4.679688 3.035156 -4.765625 2.671875 -4.765625 C 2.285156 -4.765625 1.992188 -4.625 1.796875 -4.34375 C 1.609375 -4.070312 1.515625 -3.644531 1.515625 -3.0625 L 1.515625 -2.625 C 1.515625 -2.019531 1.601562 -1.578125 1.78125 -1.296875 C 1.96875 -1.015625 2.257812 -0.875 2.65625 -0.875 C 3.019531 -0.875 3.289062 -0.953125 3.46875 -1.109375 C 3.644531 -1.273438 3.742188 -1.53125 3.765625 -1.875 Z M 4.9375 -1.875 "/></g></g></g><g fill="#38b6ff" fill-opacity="1"><g transform="translate(64.318159, 14.912482)"><g><path d="M 1.609375 0 L 0.484375 0 L 0.484375 -5.953125 L 1.609375 -5.953125 Z M 1.609375 0 "/></g></g></g><g fill="#38b6ff" fill-opacity="1"><g transform="translate(66.420653, 14.912482)"><g><path d="M 2.359375 0.078125 C 1.742188 0.078125 1.242188 -0.109375 0.859375 -0.484375 C 0.472656 -0.859375 0.28125 -1.363281 0.28125 -2 L 0.28125 -2.109375 C 0.28125 -2.523438 0.359375 -2.898438 0.515625 -3.234375 C 0.679688 -3.566406 0.910156 -3.820312 1.203125 -4 C 1.503906 -4.175781 1.847656 -4.265625 2.234375 -4.265625 C 2.804688 -4.265625 3.253906 -4.082031 3.578125 -3.71875 C 3.910156 -3.363281 4.078125 -2.851562 4.078125 -2.1875 L 4.078125 -1.734375 L 1.421875 -1.734375 C 1.453125 -1.460938 1.554688 -1.242188 1.734375 -1.078125 C 1.921875 -0.910156 2.15625 -0.828125 2.4375 -0.828125 C 2.863281 -0.828125 3.203125 -0.984375 3.453125 -1.296875 L 4 -0.671875 C 3.832031 -0.441406 3.601562 -0.257812 3.3125 -0.125 C 3.03125 0.0078125 2.710938 0.078125 2.359375 0.078125 Z M 2.234375 -3.359375 C 2.015625 -3.359375 1.832031 -3.285156 1.6875 -3.140625 C 1.550781 -2.992188 1.460938 -2.78125 1.421875 -2.5 L 2.984375 -2.5 L 2.984375 -2.578125 C 2.984375 -2.828125 2.914062 -3.019531 2.78125 -3.15625 C 2.65625 -3.289062 2.472656 -3.359375 2.234375 -3.359375 Z M 2.234375 -3.359375 "/></g></g></g><g fill="#38b6ff" fill-opacity="1"><g transform="translate(70.706948, 14.912482)"><g><path d="M 2.859375 0 C 2.804688 -0.101562 2.769531 -0.226562 2.75 -0.375 C 2.476562 -0.0703125 2.125 0.078125 1.6875 0.078125 C 1.28125 0.078125 0.941406 -0.0390625 0.671875 -0.28125 C 0.398438 -0.519531 0.265625 -0.816406 0.265625 -1.171875 C 0.265625 -1.617188 0.425781 -1.960938 0.75 -2.203125 C 1.082031 -2.441406 1.5625 -2.5625 2.1875 -2.5625 L 2.703125 -2.5625 L 2.703125 -2.796875 C 2.703125 -2.992188 2.648438 -3.148438 2.546875 -3.265625 C 2.453125 -3.378906 2.296875 -3.4375 2.078125 -3.4375 C 1.890625 -3.4375 1.742188 -3.390625 1.640625 -3.296875 C 1.535156 -3.210938 1.484375 -3.09375 1.484375 -2.9375 L 0.359375 -2.9375 C 0.359375 -3.175781 0.429688 -3.398438 0.578125 -3.609375 C 0.734375 -3.816406 0.945312 -3.976562 1.21875 -4.09375 C 1.488281 -4.207031 1.796875 -4.265625 2.140625 -4.265625 C 2.660156 -4.265625 3.070312 -4.132812 3.375 -3.875 C 3.675781 -3.613281 3.828125 -3.25 3.828125 -2.78125 L 3.828125 -0.96875 C 3.828125 -0.570312 3.878906 -0.269531 3.984375 -0.0625 L 3.984375 0 Z M 1.9375 -0.78125 C 2.101562 -0.78125 2.253906 -0.816406 2.390625 -0.890625 C 2.523438 -0.960938 2.628906 -1.0625 2.703125 -1.1875 L 2.703125 -1.90625 L 2.28125 -1.90625 C 1.71875 -1.90625 1.421875 -1.710938 1.390625 -1.328125 L 1.390625 -1.265625 C 1.390625 -1.117188 1.4375 -1 1.53125 -0.90625 C 1.625 -0.820312 1.757812 -0.78125 1.9375 -0.78125 Z M 1.9375 -0.78125 "/></g></g></g><g fill="#38b6ff" fill-opacity="1"><g transform="translate(74.958392, 14.912482)"><g><path d="M 1.46875 -4.1875 L 1.5 -3.703125 C 1.800781 -4.078125 2.203125 -4.265625 2.703125 -4.265625 C 3.148438 -4.265625 3.476562 -4.132812 3.6875 -3.875 C 3.90625 -3.613281 4.019531 -3.222656 4.03125 -2.703125 L 4.03125 0 L 2.90625 0 L 2.90625 -2.6875 C 2.90625 -2.914062 2.851562 -3.082031 2.75 -3.1875 C 2.644531 -3.300781 2.472656 -3.359375 2.234375 -3.359375 C 1.921875 -3.359375 1.6875 -3.222656 1.53125 -2.953125 L 1.53125 0 L 0.40625 0 L 0.40625 -4.1875 Z M 1.46875 -4.1875 "/></g></g></g><g fill="#38b6ff" fill-opacity="1"><g transform="translate(79.399567, 14.912482)"><g><path d="M 1.609375 0 L 0.484375 0 L 0.484375 -4.1875 L 1.609375 -4.1875 Z M 0.421875 -5.28125 C 0.421875 -5.445312 0.476562 -5.582031 0.59375 -5.6875 C 0.707031 -5.800781 0.859375 -5.859375 1.046875 -5.859375 C 1.242188 -5.859375 1.394531 -5.800781 1.5 -5.6875 C 1.613281 -5.582031 1.671875 -5.445312 1.671875 -5.28125 C 1.671875 -5.101562 1.613281 -4.960938 1.5 -4.859375 C 1.382812 -4.753906 1.234375 -4.703125 1.046875 -4.703125 C 0.859375 -4.703125 0.707031 -4.753906 0.59375 -4.859375 C 0.476562 -4.960938 0.421875 -5.101562 0.421875 -5.28125 Z M 0.421875 -5.28125 "/></g></g></g><g fill="#38b6ff" fill-opacity="1"><g transform="translate(81.502061, 14.912482)"><g><path d="M 1.46875 -4.1875 L 1.5 -3.703125 C 1.800781 -4.078125 2.203125 -4.265625 2.703125 -4.265625 C 3.148438 -4.265625 3.476562 -4.132812 3.6875 -3.875 C 3.90625 -3.613281 4.019531 -3.222656 4.03125 -2.703125 L 4.03125 0 L 2.90625 0 L 2.90625 -2.6875 C 2.90625 -2.914062 2.851562 -3.082031 2.75 -3.1875 C 2.644531 -3.300781 2.472656 -3.359375 2.234375 -3.359375 C 1.921875 -3.359375 1.6875 -3.222656 1.53125 -2.953125 L 1.53125 0 L 0.40625 0 L 0.40625 -4.1875 Z M 1.46875 -4.1875 "/></g></g></g><g fill="#38b6ff" fill-opacity="1"><g transform="translate(85.943236, 14.912482)"><g><path d="M 0.265625 -2.125 C 0.265625 -2.769531 0.414062 -3.285156 0.71875 -3.671875 C 1.03125 -4.066406 1.445312 -4.265625 1.96875 -4.265625 C 2.425781 -4.265625 2.78125 -4.109375 3.03125 -3.796875 L 3.078125 -4.1875 L 4.09375 -4.1875 L 4.09375 -0.140625 C 4.09375 0.222656 4.007812 0.539062 3.84375 0.8125 C 3.675781 1.082031 3.441406 1.289062 3.140625 1.4375 C 2.835938 1.582031 2.484375 1.65625 2.078125 1.65625 C 1.773438 1.65625 1.476562 1.59375 1.1875 1.46875 C 0.894531 1.34375 0.671875 1.1875 0.515625 1 L 1.015625 0.3125 C 1.296875 0.625 1.632812 0.78125 2.03125 0.78125 C 2.332031 0.78125 2.566406 0.695312 2.734375 0.53125 C 2.898438 0.375 2.984375 0.148438 2.984375 -0.140625 L 2.984375 -0.359375 C 2.722656 -0.0664062 2.378906 0.078125 1.953125 0.078125 C 1.453125 0.078125 1.046875 -0.117188 0.734375 -0.515625 C 0.421875 -0.910156 0.265625 -1.429688 0.265625 -2.078125 Z M 1.390625 -2.046875 C 1.390625 -1.671875 1.460938 -1.375 1.609375 -1.15625 C 1.765625 -0.9375 1.976562 -0.828125 2.25 -0.828125 C 2.582031 -0.828125 2.828125 -0.957031 2.984375 -1.21875 L 2.984375 -2.984375 C 2.828125 -3.234375 2.582031 -3.359375 2.25 -3.359375 C 1.976562 -3.359375 1.765625 -3.25 1.609375 -3.03125 C 1.460938 -2.8125 1.390625 -2.484375 1.390625 -2.046875 Z M 1.390625 -2.046875 "/></g></g></g><g fill="#38b6ff" fill-opacity="1"><g transform="translate(29.636311, 23.842265)"><g><path d="M 1.984375 -1.71875 L 1.015625 -1.71875 L 0.71875 0 L 0.171875 0 L 0.90625 -4.234375 L 2.171875 -4.234375 C 2.617188 -4.222656 2.957031 -4.109375 3.1875 -3.890625 C 3.425781 -3.671875 3.523438 -3.367188 3.484375 -2.984375 C 3.460938 -2.710938 3.363281 -2.476562 3.1875 -2.28125 C 3.019531 -2.082031 2.796875 -1.929688 2.515625 -1.828125 L 3.171875 -0.03125 L 3.171875 0 L 2.578125 0 Z M 1.09375 -2.171875 L 1.890625 -2.171875 C 2.171875 -2.171875 2.40625 -2.242188 2.59375 -2.390625 C 2.789062 -2.535156 2.90625 -2.734375 2.9375 -2.984375 C 2.96875 -3.222656 2.921875 -3.410156 2.796875 -3.546875 C 2.671875 -3.691406 2.476562 -3.765625 2.21875 -3.765625 L 1.375 -3.765625 Z M 1.09375 -2.171875 "/></g></g><g transform="translate(33.220433, 23.842265)"><g><path d="M 1.453125 0.0625 C 1.054688 0.0507812 0.75 -0.09375 0.53125 -0.375 C 0.3125 -0.65625 0.21875 -1.015625 0.25 -1.453125 L 0.265625 -1.578125 C 0.296875 -1.890625 0.382812 -2.171875 0.53125 -2.421875 C 0.6875 -2.679688 0.875 -2.878906 1.09375 -3.015625 C 1.320312 -3.148438 1.5625 -3.210938 1.8125 -3.203125 C 2.132812 -3.191406 2.382812 -3.082031 2.5625 -2.875 C 2.75 -2.664062 2.851562 -2.382812 2.875 -2.03125 C 2.882812 -1.90625 2.878906 -1.78125 2.859375 -1.65625 L 2.828125 -1.421875 L 0.78125 -1.421875 C 0.738281 -1.128906 0.78125 -0.882812 0.90625 -0.6875 C 1.039062 -0.488281 1.238281 -0.382812 1.5 -0.375 C 1.800781 -0.375 2.085938 -0.515625 2.359375 -0.796875 L 2.65625 -0.546875 C 2.519531 -0.359375 2.347656 -0.207031 2.140625 -0.09375 C 1.929688 0.0078125 1.703125 0.0625 1.453125 0.0625 Z M 1.78125 -2.765625 C 1.5625 -2.765625 1.367188 -2.6875 1.203125 -2.53125 C 1.046875 -2.382812 0.921875 -2.160156 0.828125 -1.859375 L 2.359375 -1.859375 L 2.375 -1.90625 C 2.40625 -2.144531 2.363281 -2.34375 2.25 -2.5 C 2.144531 -2.664062 1.988281 -2.753906 1.78125 -2.765625 Z M 1.78125 -2.765625 "/></g></g><g transform="translate(36.307487, 23.842265)"><g><path d="M 2.015625 0 C 2.003906 -0.0507812 2 -0.109375 2 -0.171875 L 2 -0.328125 C 1.707031 -0.0664062 1.398438 0.0625 1.078125 0.0625 C 0.804688 0.0507812 0.582031 -0.0351562 0.40625 -0.203125 C 0.226562 -0.378906 0.148438 -0.59375 0.171875 -0.84375 C 0.191406 -1.175781 0.335938 -1.4375 0.609375 -1.625 C 0.878906 -1.8125 1.238281 -1.90625 1.6875 -1.90625 L 2.234375 -1.90625 L 2.265625 -2.15625 C 2.285156 -2.34375 2.25 -2.488281 2.15625 -2.59375 C 2.0625 -2.707031 1.925781 -2.765625 1.75 -2.765625 C 1.5625 -2.773438 1.398438 -2.734375 1.265625 -2.640625 C 1.128906 -2.546875 1.046875 -2.425781 1.015625 -2.28125 L 0.484375 -2.265625 C 0.503906 -2.453125 0.578125 -2.617188 0.703125 -2.765625 C 0.828125 -2.910156 0.988281 -3.019531 1.1875 -3.09375 C 1.382812 -3.175781 1.585938 -3.210938 1.796875 -3.203125 C 2.117188 -3.191406 2.367188 -3.09375 2.546875 -2.90625 C 2.734375 -2.71875 2.816406 -2.460938 2.796875 -2.140625 L 2.53125 -0.59375 L 2.515625 -0.359375 C 2.515625 -0.253906 2.53125 -0.148438 2.5625 -0.046875 L 2.546875 0 Z M 1.1875 -0.40625 C 1.351562 -0.40625 1.507812 -0.445312 1.65625 -0.53125 C 1.8125 -0.613281 1.945312 -0.726562 2.0625 -0.875 L 2.171875 -1.53125 L 1.765625 -1.53125 C 1.429688 -1.53125 1.175781 -1.476562 1 -1.375 C 0.832031 -1.269531 0.734375 -1.117188 0.703125 -0.921875 C 0.691406 -0.773438 0.726562 -0.648438 0.8125 -0.546875 C 0.894531 -0.453125 1.019531 -0.40625 1.1875 -0.40625 Z M 1.1875 -0.40625 "/></g></g><g transform="translate(39.478839, 23.842265)"><g><path d="M 0.234375 -1.578125 C 0.273438 -1.898438 0.363281 -2.1875 0.5 -2.4375 C 0.644531 -2.695312 0.816406 -2.890625 1.015625 -3.015625 C 1.210938 -3.148438 1.4375 -3.210938 1.6875 -3.203125 C 2.03125 -3.191406 2.296875 -3.066406 2.484375 -2.828125 L 2.796875 -4.46875 L 3.3125 -4.46875 L 2.546875 0 L 2.0625 0 L 2.125 -0.34375 C 1.875 -0.0703125 1.566406 0.0625 1.203125 0.0625 C 0.910156 0.0507812 0.675781 -0.0625 0.5 -0.28125 C 0.332031 -0.5 0.242188 -0.796875 0.234375 -1.171875 C 0.222656 -1.285156 0.222656 -1.421875 0.234375 -1.578125 Z M 0.75 -1.28125 C 0.738281 -1 0.785156 -0.78125 0.890625 -0.625 C 0.992188 -0.476562 1.148438 -0.398438 1.359375 -0.390625 C 1.660156 -0.378906 1.929688 -0.535156 2.171875 -0.859375 L 2.421875 -2.3125 C 2.296875 -2.59375 2.082031 -2.738281 1.78125 -2.75 C 1.570312 -2.757812 1.390625 -2.695312 1.234375 -2.5625 C 1.078125 -2.425781 0.957031 -2.238281 0.875 -2 C 0.789062 -1.769531 0.75 -1.53125 0.75 -1.28125 Z M 0.75 -1.28125 "/></g></g><g transform="translate(42.763557, 23.842265)"><g><path d="M 1.21875 -0.796875 L 2.34375 -3.140625 L 2.921875 -3.140625 L 1.046875 0.515625 C 0.785156 1.023438 0.453125 1.28125 0.046875 1.28125 C -0.0234375 1.28125 -0.128906 1.265625 -0.265625 1.234375 L -0.21875 0.796875 L -0.078125 0.8125 C 0.0859375 0.8125 0.226562 0.769531 0.34375 0.6875 C 0.46875 0.601562 0.578125 0.472656 0.671875 0.296875 L 0.859375 -0.0625 L 0.3125 -3.140625 L 0.859375 -3.140625 Z M 1.21875 -0.796875 "/></g></g><g transform="translate(45.525046, 23.842265)"><g/></g><g transform="translate(46.984275, 23.842265)"><g><path d="M 3.671875 -3.765625 L 2.34375 -3.765625 L 1.6875 0 L 1.15625 0 L 1.8125 -3.765625 L 0.484375 -3.765625 L 0.5625 -4.234375 L 3.75 -4.234375 Z M 3.671875 -3.765625 "/></g></g><g transform="translate(50.457937, 23.842265)"><g><path d="M 1.84375 -3.203125 C 2.101562 -3.203125 2.328125 -3.128906 2.515625 -2.984375 C 2.703125 -2.847656 2.835938 -2.65625 2.921875 -2.40625 C 3.015625 -2.164062 3.046875 -1.898438 3.015625 -1.609375 L 3.015625 -1.546875 C 2.984375 -1.234375 2.894531 -0.953125 2.75 -0.703125 C 2.601562 -0.460938 2.410156 -0.273438 2.171875 -0.140625 C 1.941406 -0.00390625 1.691406 0.0625 1.421875 0.0625 C 1.160156 0.0507812 0.9375 -0.0195312 0.75 -0.15625 C 0.5625 -0.289062 0.421875 -0.476562 0.328125 -0.71875 C 0.242188 -0.96875 0.210938 -1.234375 0.234375 -1.515625 C 0.265625 -1.847656 0.351562 -2.140625 0.5 -2.390625 C 0.644531 -2.648438 0.832031 -2.851562 1.0625 -3 C 1.300781 -3.144531 1.5625 -3.210938 1.84375 -3.203125 Z M 0.765625 -1.515625 C 0.753906 -1.390625 0.753906 -1.265625 0.765625 -1.140625 C 0.785156 -0.910156 0.851562 -0.726562 0.96875 -0.59375 C 1.082031 -0.457031 1.238281 -0.382812 1.4375 -0.375 C 1.613281 -0.375 1.773438 -0.414062 1.921875 -0.5 C 2.066406 -0.59375 2.191406 -0.734375 2.296875 -0.921875 C 2.398438 -1.109375 2.460938 -1.316406 2.484375 -1.546875 C 2.503906 -1.722656 2.507812 -1.875 2.5 -2 C 2.476562 -2.226562 2.40625 -2.410156 2.28125 -2.546875 C 2.164062 -2.679688 2.007812 -2.753906 1.8125 -2.765625 C 1.539062 -2.765625 1.3125 -2.65625 1.125 -2.4375 C 0.9375 -2.21875 0.816406 -1.929688 0.765625 -1.578125 Z M 0.765625 -1.515625 "/></g></g><g transform="translate(53.780444, 23.842265)"><g/></g><g transform="translate(55.239673, 23.842265)"><g><path d="M 2.546875 -1.09375 C 2.585938 -1.40625 2.425781 -1.628906 2.0625 -1.765625 L 1.5625 -1.953125 L 1.390625 -2.03125 C 0.828125 -2.28125 0.566406 -2.640625 0.609375 -3.109375 C 0.617188 -3.347656 0.695312 -3.554688 0.84375 -3.734375 C 0.988281 -3.910156 1.175781 -4.046875 1.40625 -4.140625 C 1.632812 -4.242188 1.882812 -4.296875 2.15625 -4.296875 C 2.40625 -4.285156 2.628906 -4.222656 2.828125 -4.109375 C 3.035156 -4.003906 3.191406 -3.851562 3.296875 -3.65625 C 3.398438 -3.46875 3.445312 -3.25 3.4375 -3 L 2.890625 -3.015625 C 2.898438 -3.265625 2.835938 -3.460938 2.703125 -3.609375 C 2.566406 -3.753906 2.375 -3.828125 2.125 -3.828125 C 1.863281 -3.835938 1.640625 -3.773438 1.453125 -3.640625 C 1.273438 -3.515625 1.175781 -3.34375 1.15625 -3.125 C 1.113281 -2.832031 1.289062 -2.613281 1.6875 -2.46875 L 2.125 -2.3125 L 2.34375 -2.21875 C 2.882812 -1.96875 3.132812 -1.59375 3.09375 -1.09375 C 3.070312 -0.851562 2.988281 -0.644531 2.84375 -0.46875 C 2.707031 -0.300781 2.519531 -0.171875 2.28125 -0.078125 C 2.039062 0.015625 1.785156 0.0625 1.515625 0.0625 C 1.242188 0.0625 1 0.00390625 0.78125 -0.109375 C 0.5625 -0.222656 0.394531 -0.375 0.28125 -0.5625 C 0.164062 -0.757812 0.117188 -0.984375 0.140625 -1.234375 L 0.6875 -1.234375 C 0.664062 -0.972656 0.726562 -0.769531 0.875 -0.625 C 1.03125 -0.476562 1.25 -0.398438 1.53125 -0.390625 C 1.8125 -0.390625 2.039062 -0.453125 2.21875 -0.578125 C 2.40625 -0.703125 2.515625 -0.875 2.546875 -1.09375 Z M 2.546875 -1.09375 "/></g></g><g transform="translate(58.695895, 23.842265)"><g><path d="M 1.453125 0.0625 C 1.054688 0.0507812 0.75 -0.09375 0.53125 -0.375 C 0.3125 -0.65625 0.21875 -1.015625 0.25 -1.453125 L 0.265625 -1.578125 C 0.296875 -1.890625 0.382812 -2.171875 0.53125 -2.421875 C 0.6875 -2.679688 0.875 -2.878906 1.09375 -3.015625 C 1.320312 -3.148438 1.5625 -3.210938 1.8125 -3.203125 C 2.132812 -3.191406 2.382812 -3.082031 2.5625 -2.875 C 2.75 -2.664062 2.851562 -2.382812 2.875 -2.03125 C 2.882812 -1.90625 2.878906 -1.78125 2.859375 -1.65625 L 2.828125 -1.421875 L 0.78125 -1.421875 C 0.738281 -1.128906 0.78125 -0.882812 0.90625 -0.6875 C 1.039062 -0.488281 1.238281 -0.382812 1.5 -0.375 C 1.800781 -0.375 2.085938 -0.515625 2.359375 -0.796875 L 2.65625 -0.546875 C 2.519531 -0.359375 2.347656 -0.207031 2.140625 -0.09375 C 1.929688 0.0078125 1.703125 0.0625 1.453125 0.0625 Z M 1.78125 -2.765625 C 1.5625 -2.765625 1.367188 -2.6875 1.203125 -2.53125 C 1.046875 -2.382812 0.921875 -2.160156 0.828125 -1.859375 L 2.359375 -1.859375 L 2.375 -1.90625 C 2.40625 -2.144531 2.363281 -2.34375 2.25 -2.5 C 2.144531 -2.664062 1.988281 -2.753906 1.78125 -2.765625 Z M 1.78125 -2.765625 "/></g></g><g transform="translate(61.782949, 23.842265)"><g><path d="M 2.046875 -2.671875 L 1.796875 -2.6875 C 1.460938 -2.6875 1.195312 -2.535156 1 -2.234375 L 0.609375 0 L 0.09375 0 L 0.640625 -3.140625 L 1.140625 -3.140625 L 1.0625 -2.78125 C 1.289062 -3.070312 1.554688 -3.210938 1.859375 -3.203125 C 1.921875 -3.203125 2.003906 -3.191406 2.109375 -3.171875 Z M 2.046875 -2.671875 "/></g></g><g transform="translate(63.765407, 23.842265)"><g><path d="M 1.234375 -0.734375 L 2.359375 -3.140625 L 2.921875 -3.140625 L 1.34375 0 L 0.9375 0 L 0.3125 -3.140625 L 0.84375 -3.140625 Z M 1.234375 -0.734375 "/></g></g><g transform="translate(66.590846, 23.842265)"><g><path d="M 1.453125 0.0625 C 1.054688 0.0507812 0.75 -0.09375 0.53125 -0.375 C 0.3125 -0.65625 0.21875 -1.015625 0.25 -1.453125 L 0.265625 -1.578125 C 0.296875 -1.890625 0.382812 -2.171875 0.53125 -2.421875 C 0.6875 -2.679688 0.875 -2.878906 1.09375 -3.015625 C 1.320312 -3.148438 1.5625 -3.210938 1.8125 -3.203125 C 2.132812 -3.191406 2.382812 -3.082031 2.5625 -2.875 C 2.75 -2.664062 2.851562 -2.382812 2.875 -2.03125 C 2.882812 -1.90625 2.878906 -1.78125 2.859375 -1.65625 L 2.828125 -1.421875 L 0.78125 -1.421875 C 0.738281 -1.128906 0.78125 -0.882812 0.90625 -0.6875 C 1.039062 -0.488281 1.238281 -0.382812 1.5 -0.375 C 1.800781 -0.375 2.085938 -0.515625 2.359375 -0.796875 L 2.65625 -0.546875 C 2.519531 -0.359375 2.347656 -0.207031 2.140625 -0.09375 C 1.929688 0.0078125 1.703125 0.0625 1.453125 0.0625 Z M 1.78125 -2.765625 C 1.5625 -2.765625 1.367188 -2.6875 1.203125 -2.53125 C 1.046875 -2.382812 0.921875 -2.160156 0.828125 -1.859375 L 2.359375 -1.859375 L 2.375 -1.90625 C 2.40625 -2.144531 2.363281 -2.34375 2.25 -2.5 C 2.144531 -2.664062 1.988281 -2.753906 1.78125 -2.765625 Z M 1.78125 -2.765625 "/></g></g><g transform="translate(69.6779, 23.842265)"><g/></g><g transform="translate(71.137129, 23.842265)"><g><path d="M 0.203125 -1.109375 C 0.234375 -1.472656 0.453125 -1.796875 0.859375 -2.078125 L 1.1875 -2.296875 L 1.0625 -2.53125 C 0.914062 -2.78125 0.851562 -3.015625 0.875 -3.234375 C 0.894531 -3.554688 1.007812 -3.8125 1.21875 -4 C 1.425781 -4.195312 1.691406 -4.296875 2.015625 -4.296875 C 2.273438 -4.285156 2.488281 -4.195312 2.65625 -4.03125 C 2.832031 -3.863281 2.910156 -3.660156 2.890625 -3.421875 C 2.867188 -3.085938 2.660156 -2.78125 2.265625 -2.5 L 1.84375 -2.21875 L 2.5625 -1.109375 C 2.738281 -1.367188 2.851562 -1.648438 2.90625 -1.953125 L 3.375 -1.953125 C 3.320312 -1.460938 3.144531 -1.050781 2.84375 -0.71875 L 3.296875 0 L 2.71875 0 L 2.5 -0.328125 C 2.164062 -0.0664062 1.796875 0.0625 1.390625 0.0625 C 1.023438 0.0507812 0.726562 -0.0625 0.5 -0.28125 C 0.28125 -0.5 0.179688 -0.773438 0.203125 -1.109375 Z M 1.40625 -0.375 C 1.664062 -0.375 1.941406 -0.484375 2.234375 -0.703125 L 1.4375 -1.9375 L 1.3125 -1.859375 C 0.96875 -1.617188 0.773438 -1.367188 0.734375 -1.109375 C 0.710938 -0.898438 0.757812 -0.726562 0.875 -0.59375 C 1 -0.457031 1.175781 -0.382812 1.40625 -0.375 Z M 1.390625 -3.265625 C 1.367188 -3.097656 1.414062 -2.914062 1.53125 -2.71875 L 1.609375 -2.578125 L 2.0625 -2.890625 C 2.257812 -3.035156 2.367188 -3.210938 2.390625 -3.421875 C 2.410156 -3.546875 2.378906 -3.644531 2.296875 -3.71875 C 2.210938 -3.800781 2.109375 -3.84375 1.984375 -3.84375 C 1.816406 -3.84375 1.675781 -3.785156 1.5625 -3.671875 C 1.457031 -3.554688 1.398438 -3.421875 1.390625 -3.265625 Z M 1.390625 -3.265625 "/></g></g><g transform="translate(74.756133, 23.842265)"><g/></g><g transform="translate(76.215362, 23.842265)"><g><path d="M 3.390625 -1.34375 C 3.316406 -0.90625 3.117188 -0.554688 2.796875 -0.296875 C 2.484375 -0.046875 2.109375 0.0703125 1.671875 0.0625 C 1.410156 0.0507812 1.179688 -0.0078125 0.984375 -0.125 C 0.785156 -0.25 0.628906 -0.425781 0.515625 -0.65625 C 0.410156 -0.894531 0.351562 -1.15625 0.34375 -1.4375 C 0.34375 -1.59375 0.351562 -1.75 0.375 -1.90625 L 0.421875 -2.25 C 0.515625 -2.882812 0.738281 -3.382812 1.09375 -3.75 C 1.445312 -4.125 1.878906 -4.304688 2.390625 -4.296875 C 2.785156 -4.285156 3.097656 -4.15625 3.328125 -3.90625 C 3.566406 -3.65625 3.691406 -3.3125 3.703125 -2.875 L 3.15625 -2.875 C 3.132812 -3.46875 2.898438 -3.785156 2.453125 -3.828125 L 2.359375 -3.828125 C 1.992188 -3.835938 1.6875 -3.703125 1.4375 -3.421875 C 1.195312 -3.140625 1.039062 -2.753906 0.96875 -2.265625 L 0.90625 -1.828125 L 0.890625 -1.578125 C 0.878906 -1.222656 0.941406 -0.9375 1.078125 -0.71875 C 1.210938 -0.507812 1.421875 -0.398438 1.703125 -0.390625 C 1.992188 -0.390625 2.234375 -0.460938 2.421875 -0.609375 C 2.617188 -0.765625 2.769531 -1.007812 2.875 -1.34375 Z M 3.390625 -1.34375 "/></g></g><g transform="translate(80.002962, 23.842265)"><g><path d="M 0.65625 0 L 0.140625 0 L 0.90625 -4.46875 L 1.4375 -4.46875 Z M 0.65625 0 "/></g></g><g transform="translate(81.433122, 23.842265)"><g><path d="M 1.453125 0.0625 C 1.054688 0.0507812 0.75 -0.09375 0.53125 -0.375 C 0.3125 -0.65625 0.21875 -1.015625 0.25 -1.453125 L 0.265625 -1.578125 C 0.296875 -1.890625 0.382812 -2.171875 0.53125 -2.421875 C 0.6875 -2.679688 0.875 -2.878906 1.09375 -3.015625 C 1.320312 -3.148438 1.5625 -3.210938 1.8125 -3.203125 C 2.132812 -3.191406 2.382812 -3.082031 2.5625 -2.875 C 2.75 -2.664062 2.851562 -2.382812 2.875 -2.03125 C 2.882812 -1.90625 2.878906 -1.78125 2.859375 -1.65625 L 2.828125 -1.421875 L 0.78125 -1.421875 C 0.738281 -1.128906 0.78125 -0.882812 0.90625 -0.6875 C 1.039062 -0.488281 1.238281 -0.382812 1.5 -0.375 C 1.800781 -0.375 2.085938 -0.515625 2.359375 -0.796875 L 2.65625 -0.546875 C 2.519531 -0.359375 2.347656 -0.207031 2.140625 -0.09375 C 1.929688 0.0078125 1.703125 0.0625 1.453125 0.0625 Z M 1.78125 -2.765625 C 1.5625 -2.765625 1.367188 -2.6875 1.203125 -2.53125 C 1.046875 -2.382812 0.921875 -2.160156 0.828125 -1.859375 L 2.359375 -1.859375 L 2.375 -1.90625 C 2.40625 -2.144531 2.363281 -2.34375 2.25 -2.5 C 2.144531 -2.664062 1.988281 -2.753906 1.78125 -2.765625 Z M 1.78125 -2.765625 "/></g></g><g transform="translate(84.520176, 23.842265)"><g><path d="M 2.015625 0 C 2.003906 -0.0507812 2 -0.109375 2 -0.171875 L 2 -0.328125 C 1.707031 -0.0664062 1.398438 0.0625 1.078125 0.0625 C 0.804688 0.0507812 0.582031 -0.0351562 0.40625 -0.203125 C 0.226562 -0.378906 0.148438 -0.59375 0.171875 -0.84375 C 0.191406 -1.175781 0.335938 -1.4375 0.609375 -1.625 C 0.878906 -1.8125 1.238281 -1.90625 1.6875 -1.90625 L 2.234375 -1.90625 L 2.265625 -2.15625 C 2.285156 -2.34375 2.25 -2.488281 2.15625 -2.59375 C 2.0625 -2.707031 1.925781 -2.765625 1.75 -2.765625 C 1.5625 -2.773438 1.398438 -2.734375 1.265625 -2.640625 C 1.128906 -2.546875 1.046875 -2.425781 1.015625 -2.28125 L 0.484375 -2.265625 C 0.503906 -2.453125 0.578125 -2.617188 0.703125 -2.765625 C 0.828125 -2.910156 0.988281 -3.019531 1.1875 -3.09375 C 1.382812 -3.175781 1.585938 -3.210938 1.796875 -3.203125 C 2.117188 -3.191406 2.367188 -3.09375 2.546875 -2.90625 C 2.734375 -2.71875 2.816406 -2.460938 2.796875 -2.140625 L 2.53125 -0.59375 L 2.515625 -0.359375 C 2.515625 -0.253906 2.53125 -0.148438 2.5625 -0.046875 L 2.546875 0 Z M 1.1875 -0.40625 C 1.351562 -0.40625 1.507812 -0.445312 1.65625 -0.53125 C 1.8125 -0.613281 1.945312 -0.726562 2.0625 -0.875 L 2.171875 -1.53125 L 1.765625 -1.53125 C 1.429688 -1.53125 1.175781 -1.476562 1 -1.375 C 0.832031 -1.269531 0.734375 -1.117188 0.703125 -0.921875 C 0.691406 -0.773438 0.726562 -0.648438 0.8125 -0.546875 C 0.894531 -0.453125 1.019531 -0.40625 1.1875 -0.40625 Z M 1.1875 -0.40625 "/></g></g><g transform="translate(87.691528, 23.842265)"><g><path d="M 1.140625 -3.140625 L 1.0625 -2.75 C 1.34375 -3.0625 1.660156 -3.210938 2.015625 -3.203125 C 2.316406 -3.191406 2.535156 -3.085938 2.671875 -2.890625 C 2.816406 -2.691406 2.875 -2.414062 2.84375 -2.0625 L 2.5 0 L 1.96875 0 L 2.3125 -2.0625 C 2.320312 -2.164062 2.320312 -2.253906 2.3125 -2.328125 C 2.28125 -2.597656 2.125 -2.738281 1.84375 -2.75 C 1.519531 -2.757812 1.238281 -2.59375 1 -2.25 L 0.609375 0 L 0.09375 0 L 0.640625 -3.140625 Z M 1.140625 -3.140625 "/></g></g></g><g fill="#38b6ff" fill-opacity="1"><g transform="translate(90.912296, 23.842265)"><g/></g></g><g clip-path="url(#5da051fa6c)"><path fill="#3d3a3b" d="M 12.617188 23.707031 C 12.332031 23.457031 11.378906 22.496094 11.015625 20.722656 C 10.988281 20.597656 10.871094 20.511719 10.746094 20.535156 C 10.621094 20.558594 10.539062 20.679688 10.554688 20.808594 C 10.761719 22.320312 11.171875 23.457031 11.511719 24.078125 C 11.121094 24.257812 10.628906 24.382812 10.40625 24.429688 C 10.234375 24.242188 9.855469 23.789062 9.738281 23.34375 C 9.710938 23.222656 9.597656 23.148438 9.476562 23.167969 C 9.359375 23.1875 9.273438 23.296875 9.28125 23.417969 C 9.320312 24.074219 9.382812 24.496094 9.433594 24.730469 C 9.074219 24.839844 8.308594 25.058594 7.613281 25.101562 C 7.535156 24.570312 7.425781 23.949219 6.976562 22.851562 C 6.929688 22.742188 6.8125 22.683594 6.703125 22.714844 C 6.589844 22.746094 6.515625 22.855469 6.53125 22.976562 C 6.640625 23.921875 6.589844 24.824219 6.5625 25.203125 C 5.789062 25.289062 5.046875 25.285156 4.746094 25.207031 C 5.0625 24.007812 5.574219 21.171875 5.597656 21.046875 C 5.597656 21.03125 5.601562 21.011719 5.601562 20.996094 C 5.597656 20.824219 5.714844 20.671875 5.878906 20.636719 L 11.609375 19.460938 C 11.765625 19.429688 11.925781 19.515625 11.992188 19.667969 C 12.039062 19.882812 12.382812 21.160156 14.3125 22.898438 C 13.804688 23.363281 12.921875 23.628906 12.617188 23.707031 Z M 5.59375 19.867188 L 6.871094 18.089844 C 6.90625 18.042969 6.957031 18.007812 7.015625 17.996094 C 7.199219 17.957031 7.359375 17.847656 7.464844 17.6875 C 7.570312 17.523438 7.605469 17.332031 7.570312 17.140625 L 6.855469 13.425781 C 6.980469 13.660156 7.238281 13.792969 7.507812 13.738281 C 7.773438 13.683594 7.964844 13.457031 7.992188 13.195312 L 8.707031 16.90625 C 8.785156 17.300781 9.15625 17.554688 9.535156 17.476562 C 9.59375 17.464844 9.65625 17.476562 9.707031 17.507812 L 11.542969 18.648438 C 11.546875 18.652344 11.566406 18.660156 11.558594 18.6875 C 11.554688 18.714844 11.539062 18.71875 11.53125 18.71875 L 5.632812 19.929688 C 5.625 19.929688 5.609375 19.933594 5.59375 19.914062 C 5.578125 19.890625 5.589844 19.875 5.59375 19.867188 Z M 7.414062 13.265625 C 7.339844 13.28125 7.261719 13.230469 7.246094 13.152344 C 7.230469 13.070312 7.28125 12.992188 7.359375 12.976562 C 7.4375 12.960938 7.511719 13.011719 7.527344 13.09375 C 7.542969 13.171875 7.492188 13.25 7.414062 13.265625 Z M 6.773438 13.007812 C 6.710938 12.683594 6.917969 12.367188 7.230469 12.304688 C 7.269531 12.296875 7.304688 12.292969 7.34375 12.292969 C 7.457031 12.292969 7.570312 12.328125 7.664062 12.394531 C 7.792969 12.480469 7.882812 12.617188 7.914062 12.773438 L 7.921875 12.816406 C 7.792969 12.582031 7.535156 12.449219 7.269531 12.503906 C 7.003906 12.558594 6.8125 12.785156 6.78125 13.050781 Z M 14.832031 23.03125 C 14.910156 22.929688 14.898438 22.78125 14.800781 22.695312 C 12.699219 20.871094 12.449219 19.566406 12.445312 19.554688 C 12.441406 19.539062 12.4375 19.523438 12.433594 19.507812 C 12.339844 19.261719 12.144531 19.085938 11.914062 19.011719 C 11.96875 18.941406 12.003906 18.859375 12.019531 18.769531 C 12.054688 18.554688 11.960938 18.34375 11.78125 18.234375 L 9.945312 17.09375 C 9.796875 17.003906 9.617188 16.96875 9.445312 17.003906 C 9.316406 17.03125 9.191406 16.945312 9.164062 16.8125 L 8.371094 12.679688 C 8.316406 12.398438 8.15625 12.152344 7.925781 11.992188 C 7.691406 11.832031 7.414062 11.773438 7.140625 11.832031 C 6.574219 11.949219 6.203125 12.515625 6.316406 13.101562 L 7.113281 17.234375 C 7.136719 17.367188 7.054688 17.496094 6.925781 17.523438 C 6.753906 17.558594 6.601562 17.65625 6.496094 17.804688 L 5.21875 19.582031 C 5.09375 19.753906 5.085938 19.988281 5.199219 20.171875 C 5.25 20.253906 5.324219 20.320312 5.40625 20.359375 C 5.242188 20.515625 5.136719 20.738281 5.132812 20.980469 C 5.082031 21.269531 4.535156 24.28125 4.246094 25.261719 C 4.21875 25.351562 4.246094 25.449219 4.3125 25.511719 C 4.433594 25.625 4.675781 25.75 5.453125 25.75 C 5.546875 25.75 5.652344 25.746094 5.765625 25.742188 C 6.300781 25.722656 6.785156 25.664062 6.804688 25.660156 C 6.910156 25.648438 6.996094 25.5625 7.007812 25.449219 C 7.011719 25.425781 7.046875 25.109375 7.058594 24.632812 C 7.109375 24.875 7.140625 25.085938 7.167969 25.292969 L 7.183594 25.382812 C 7.199219 25.5 7.296875 25.589844 7.414062 25.589844 C 8.46875 25.585938 9.734375 25.136719 9.785156 25.117188 C 9.90625 25.074219 9.972656 24.9375 9.933594 24.8125 C 9.929688 24.8125 9.90625 24.726562 9.871094 24.53125 C 10.027344 24.730469 10.152344 24.855469 10.164062 24.867188 C 10.21875 24.921875 10.292969 24.945312 10.367188 24.929688 C 10.410156 24.921875 11.378906 24.738281 11.964844 24.378906 C 12.019531 24.34375 12.058594 24.289062 12.074219 24.222656 C 12.085938 24.15625 12.074219 24.089844 12.035156 24.035156 C 11.9375 23.882812 11.828125 23.679688 11.722656 23.429688 C 12.089844 23.90625 12.394531 24.144531 12.421875 24.164062 C 12.472656 24.207031 12.542969 24.21875 12.609375 24.207031 C 12.671875 24.191406 14.191406 23.84375 14.832031 23.03125 " fill-opacity="1" fill-rule="nonzero"/></g><path fill="#3d3a3b" d="M 16.59375 19.722656 L 18.148438 19.722656 L 18.148438 21.4375 L 16.59375 21.4375 Z M 16.359375 21.921875 L 18.382812 21.921875 C 18.511719 21.921875 18.617188 21.8125 18.617188 21.679688 L 18.617188 19.480469 C 18.617188 19.347656 18.511719 19.238281 18.382812 19.238281 L 16.359375 19.238281 C 16.230469 19.238281 16.125 19.347656 16.125 19.480469 L 16.125 21.679688 C 16.125 21.8125 16.230469 21.921875 16.359375 21.921875 " fill-opacity="1" fill-rule="nonzero"/><g clip-path="url(#511dd4694d)"><path fill="#3d3a3b" d="M 23.628906 15.746094 L 22.128906 15.746094 C 22 15.746094 21.894531 15.855469 21.894531 15.988281 L 21.894531 24.277344 L 14.863281 24.277344 C 15.144531 24.085938 15.375 23.871094 15.554688 23.640625 L 16.136719 22.90625 C 16.21875 22.804688 16.203125 22.652344 16.105469 22.570312 L 15.402344 21.957031 C 15.386719 21.945312 15.375 21.933594 15.359375 21.921875 L 15.660156 21.921875 C 15.789062 21.921875 15.894531 21.8125 15.894531 21.679688 L 15.894531 19.480469 C 15.894531 19.347656 15.789062 19.238281 15.660156 19.238281 L 13.636719 19.238281 C 13.507812 19.238281 13.40625 19.347656 13.40625 19.480469 C 13.386719 19.433594 13.375 19.398438 13.367188 19.375 L 13.363281 19.34375 C 13.363281 19.320312 13.355469 19.296875 13.347656 19.277344 L 13.304688 19.15625 C 13.222656 18.945312 13.109375 18.753906 12.960938 18.585938 C 12.933594 18.097656 12.675781 17.660156 12.261719 17.40625 L 10.425781 16.265625 C 10.425781 16.265625 10.421875 16.265625 10.421875 16.265625 C 10.1875 16.125 10.128906 15.957031 10.121094 15.933594 L 9.664062 13.691406 L 16.011719 8.941406 L 23.628906 14.648438 Z M 10.121094 15.941406 L 10.121094 15.9375 C 10.121094 15.9375 10.121094 15.941406 10.121094 15.941406 Z M 24 14.332031 L 16.148438 8.449219 C 16.066406 8.386719 15.953125 8.386719 15.875 8.449219 L 9.269531 13.394531 C 9.195312 13.449219 9.160156 13.546875 9.179688 13.640625 L 9.664062 16.039062 C 9.664062 16.039062 9.664062 16.042969 9.664062 16.042969 C 9.675781 16.082031 9.761719 16.429688 10.1875 16.683594 L 12.023438 17.820312 C 12.320312 18.003906 12.5 18.328125 12.496094 18.6875 C 12.496094 18.75 12.519531 18.816406 12.566406 18.859375 C 12.699219 18.996094 12.800781 19.152344 12.871094 19.332031 L 12.902344 19.417969 L 12.902344 19.441406 C 12.90625 19.457031 12.910156 19.472656 12.914062 19.488281 C 12.941406 19.589844 13.0625 19.960938 13.445312 20.527344 C 13.503906 20.613281 13.613281 20.648438 13.707031 20.617188 C 13.804688 20.585938 13.871094 20.492188 13.871094 20.386719 L 13.871094 19.722656 L 15.429688 19.722656 L 15.429688 21.4375 L 14.75 21.4375 C 14.652344 21.4375 14.566406 21.5 14.53125 21.589844 C 14.496094 21.683594 14.519531 21.789062 14.589844 21.855469 C 14.753906 22.015625 14.925781 22.171875 15.101562 22.328125 L 15.628906 22.785156 L 15.195312 23.339844 C 14.902344 23.707031 14.449219 24.03125 13.847656 24.300781 C 13.746094 24.34375 13.6875 24.457031 13.710938 24.570312 C 13.730469 24.679688 13.828125 24.761719 13.9375 24.761719 L 22.128906 24.761719 C 22.257812 24.761719 22.359375 24.652344 22.359375 24.519531 L 22.359375 16.230469 L 23.863281 16.230469 C 23.992188 16.230469 24.097656 16.121094 24.097656 15.988281 L 24.097656 14.523438 C 24.097656 14.449219 24.058594 14.375 24 14.332031 " fill-opacity="1" fill-rule="nonzero"/></g><path fill="#3d3a3b" d="M 15.429688 18.539062 L 13.871094 18.539062 L 13.871094 16.820312 L 15.429688 16.820312 Z M 15.660156 16.339844 L 13.636719 16.339844 C 13.507812 16.339844 13.40625 16.449219 13.40625 16.582031 L 13.40625 18.78125 C 13.40625 18.914062 13.507812 19.019531 13.636719 19.019531 L 15.660156 19.019531 C 15.789062 19.019531 15.894531 18.914062 15.894531 18.78125 L 15.894531 16.582031 C 15.894531 16.449219 15.789062 16.339844 15.660156 16.339844 " fill-opacity="1" fill-rule="nonzero"/><path fill="#3d3a3b" d="M 16.59375 16.820312 L 18.148438 16.820312 L 18.148438 18.539062 L 16.59375 18.539062 Z M 16.359375 19.019531 L 18.382812 19.019531 C 18.511719 19.019531 18.617188 18.914062 18.617188 18.78125 L 18.617188 16.582031 C 18.617188 16.449219 18.511719 16.339844 18.382812 16.339844 L 16.359375 16.339844 C 16.230469 16.339844 16.125 16.449219 16.125 16.582031 L 16.125 18.78125 C 16.125 18.914062 16.230469 19.019531 16.359375 19.019531 " fill-opacity="1" fill-rule="nonzero"/><g clip-path="url(#4a73958938)"><path fill="#3d3a3b" d="M 9.277344 8.460938 C 9.519531 8.988281 9.933594 9.417969 10.445312 9.667969 C 9.933594 9.917969 9.519531 10.34375 9.277344 10.875 C 9.035156 10.34375 8.621094 9.917969 8.113281 9.667969 C 8.621094 9.417969 9.035156 8.988281 9.277344 8.460938 Z M 7.070312 9.910156 C 8.160156 9.910156 9.046875 10.824219 9.046875 11.949219 C 9.046875 12.082031 9.148438 12.191406 9.277344 12.191406 C 9.40625 12.191406 9.511719 12.082031 9.511719 11.949219 C 9.511719 10.824219 10.398438 9.910156 11.488281 9.910156 C 11.617188 9.910156 11.722656 9.800781 11.722656 9.667969 C 11.722656 9.535156 11.617188 9.425781 11.488281 9.425781 C 10.398438 9.425781 9.511719 8.511719 9.511719 7.386719 C 9.511719 7.253906 9.40625 7.144531 9.277344 7.144531 C 9.148438 7.144531 9.046875 7.253906 9.046875 7.386719 C 9.046875 8.511719 8.160156 9.425781 7.070312 9.425781 C 6.941406 9.425781 6.835938 9.535156 6.835938 9.667969 C 6.835938 9.800781 6.941406 9.910156 7.070312 9.910156 " fill-opacity="1" fill-rule="nonzero"/></g><g clip-path="url(#d9352ac8e3)"><path fill="#3d3a3b" d="M 5.351562 10.453125 C 5.550781 10.839844 5.859375 11.15625 6.234375 11.359375 C 5.859375 11.5625 5.550781 11.878906 5.351562 12.269531 C 5.15625 11.878906 4.847656 11.5625 4.472656 11.359375 C 4.847656 11.15625 5.15625 10.839844 5.351562 10.453125 Z M 5.121094 13.253906 C 5.121094 13.386719 5.226562 13.492188 5.351562 13.492188 C 5.480469 13.492188 5.585938 13.386719 5.585938 13.253906 C 5.585938 12.339844 6.304688 11.601562 7.1875 11.601562 C 7.316406 11.601562 7.417969 11.492188 7.417969 11.359375 C 7.417969 11.226562 7.316406 11.117188 7.1875 11.117188 C 6.304688 11.117188 5.585938 10.378906 5.585938 9.46875 C 5.585938 9.332031 5.480469 9.226562 5.351562 9.226562 C 5.226562 9.226562 5.121094 9.332031 5.121094 9.46875 C 5.121094 10.378906 4.402344 11.117188 3.519531 11.117188 C 3.390625 11.117188 3.289062 11.226562 3.289062 11.359375 C 3.289062 11.492188 3.390625 11.601562 3.519531 11.601562 C 4.402344 11.601562 5.121094 12.339844 5.121094 13.253906 " fill-opacity="1" fill-rule="nonzero"/></g></svg>